<svg id="visual" viewBox="0 0 960 540" width="960" height="540" xmlns="http://www.w3.org/2000/svg" xmlns:xlink="http://www.w3.org/1999/xlink" version="1.1" margin="0" padding="0"><g stroke-width="1" stroke-linejoin="bevel"><path d="M470 230L432 186L413 250Z" fill="#0c2435" stroke="#0c2435"></path><path d="M432 186L377 166L413 250Z" fill="#297ea6" stroke="#297ea6"></path><path d="M470 230L496 168L432 186Z" fill="#19435d" stroke="#19435d"></path><path d="M432 186L435 104L377 166Z" fill="#112e42" stroke="#112e42"></path><path d="M353 282L413 303L413 250Z" fill="#297ea6" stroke="#297ea6"></path><path d="M413 250L483 314L470 230Z" fill="#297ea6" stroke="#297ea6"></path><path d="M377 166L352 258L413 250Z" fill="#15384f" stroke="#15384f"></path><path d="M496 168L466 131L432 186Z" fill="#081a28" stroke="#081a28"></path><path d="M352 258L353 282L413 250Z" fill="#1d4e6b" stroke="#1d4e6b"></path><path d="M413 303L483 314L413 250Z" fill="#1d4e6b" stroke="#1d4e6b"></path><path d="M470 230L545 226L496 168Z" fill="#297ea6" stroke="#297ea6"></path><path d="M528 284L545 226L470 230Z" fill="#19435d" stroke="#19435d"></path><path d="M496 168L541 104L466 131Z" fill="#246688" stroke="#246688"></path><path d="M483 314L528 284L470 230Z" fill="#246688" stroke="#246688"></path><path d="M466 131L435 104L432 186Z" fill="#081a28" stroke="#081a28"></path><path d="M376 367L416 343L413 303Z" fill="#0c2435" stroke="#0c2435"></path><path d="M413 303L474 340L483 314Z" fill="#246688" stroke="#246688"></path><path d="M377 166L313 237L352 258Z" fill="#205a7a" stroke="#205a7a"></path><path d="M352 258L313 237L353 282Z" fill="#277297" stroke="#277297"></path><path d="M416 343L474 340L413 303Z" fill="#205a7a" stroke="#205a7a"></path><path d="M483 314L531 350L528 284Z" fill="#246688" stroke="#246688"></path><path d="M545 226L558 160L496 168Z" fill="#19435d" stroke="#19435d"></path><path d="M466 131L461 47L435 104Z" fill="#297ea6" stroke="#297ea6"></path><path d="M435 104L340 121L377 166Z" fill="#246688" stroke="#246688"></path><path d="M377 166L295 189L313 237Z" fill="#112e42" stroke="#112e42"></path><path d="M340 121L295 189L377 166Z" fill="#246688" stroke="#246688"></path><path d="M609 239L581 190L545 226Z" fill="#19435d" stroke="#19435d"></path><path d="M545 226L581 190L558 160Z" fill="#246688" stroke="#246688"></path><path d="M302 313L376 367L353 282Z" fill="#15384f" stroke="#15384f"></path><path d="M353 282L376 367L413 303Z" fill="#277297" stroke="#277297"></path><path d="M434 423L494 414L474 340Z" fill="#246688" stroke="#246688"></path><path d="M615 131L541 104L558 160Z" fill="#246688" stroke="#246688"></path><path d="M558 160L541 104L496 168Z" fill="#00101c" stroke="#00101c"></path><path d="M494 414L531 350L474 340Z" fill="#205a7a" stroke="#205a7a"></path><path d="M474 340L531 350L483 314Z" fill="#297ea6" stroke="#297ea6"></path><path d="M608 281L609 239L545 226Z" fill="#246688" stroke="#246688"></path><path d="M238 309L302 313L313 237Z" fill="#00101c" stroke="#00101c"></path><path d="M313 237L302 313L353 282Z" fill="#205a7a" stroke="#205a7a"></path><path d="M608 281L545 226L528 284Z" fill="#15384f" stroke="#15384f"></path><path d="M580 71L537 50L541 104Z" fill="#081a28" stroke="#081a28"></path><path d="M461 47L428 47L435 104Z" fill="#00101c" stroke="#00101c"></path><path d="M435 104L370 46L340 121Z" fill="#19435d" stroke="#19435d"></path><path d="M300 63L283 134L340 121Z" fill="#19435d" stroke="#19435d"></path><path d="M340 121L283 134L295 189Z" fill="#081a28" stroke="#081a28"></path><path d="M295 189L232 227L313 237Z" fill="#277297" stroke="#277297"></path><path d="M541 104L461 47L466 131Z" fill="#277297" stroke="#277297"></path><path d="M531 350L608 281L528 284Z" fill="#1d4e6b" stroke="#1d4e6b"></path><path d="M371 0L370 46L428 47Z" fill="#0c2435" stroke="#0c2435"></path><path d="M428 47L370 46L435 104Z" fill="#1d4e6b" stroke="#1d4e6b"></path><path d="M283 134L246 176L295 189Z" fill="#205a7a" stroke="#205a7a"></path><path d="M615 131L558 160L581 190Z" fill="#277297" stroke="#277297"></path><path d="M541 104L537 50L461 47Z" fill="#0c2435" stroke="#0c2435"></path><path d="M434 423L474 340L416 343Z" fill="#277297" stroke="#277297"></path><path d="M613 369L645 308L608 281Z" fill="#1d4e6b" stroke="#1d4e6b"></path><path d="M374 439L434 423L376 367Z" fill="#277297" stroke="#277297"></path><path d="M376 367L434 423L416 343Z" fill="#205a7a" stroke="#205a7a"></path><path d="M644 199L581 190L609 239Z" fill="#00101c" stroke="#00101c"></path><path d="M644 199L615 131L581 190Z" fill="#112e42" stroke="#112e42"></path><path d="M246 176L232 227L295 189Z" fill="#1d4e6b" stroke="#1d4e6b"></path><path d="M238 309L295 374L302 313Z" fill="#0c2435" stroke="#0c2435"></path><path d="M302 313L295 374L376 367Z" fill="#277297" stroke="#277297"></path><path d="M370 46L300 63L340 121Z" fill="#1d4e6b" stroke="#1d4e6b"></path><path d="M283 134L235 108L246 176Z" fill="#19435d" stroke="#19435d"></path><path d="M615 131L580 71L541 104Z" fill="#15384f" stroke="#15384f"></path><path d="M658 241L644 199L609 239Z" fill="#277297" stroke="#277297"></path><path d="M232 227L238 309L313 237Z" fill="#297ea6" stroke="#297ea6"></path><path d="M473 0L438 0L461 47Z" fill="#246688" stroke="#246688"></path><path d="M461 47L438 0L428 47Z" fill="#081a28" stroke="#081a28"></path><path d="M370 46L305 0L300 63Z" fill="#1d4e6b" stroke="#1d4e6b"></path><path d="M473 0L461 47L521 0Z" fill="#081a28" stroke="#081a28"></path><path d="M523 470L537 420L494 414Z" fill="#246688" stroke="#246688"></path><path d="M494 414L537 420L531 350Z" fill="#1d4e6b" stroke="#1d4e6b"></path><path d="M645 308L658 241L608 281Z" fill="#0c2435" stroke="#0c2435"></path><path d="M608 281L658 241L609 239Z" fill="#297ea6" stroke="#297ea6"></path><path d="M521 0L461 47L537 50Z" fill="#00101c" stroke="#00101c"></path><path d="M295 374L374 439L376 367Z" fill="#277297" stroke="#277297"></path><path d="M523 470L582 435L537 420Z" fill="#00101c" stroke="#00101c"></path><path d="M613 369L608 281L531 350Z" fill="#205a7a" stroke="#205a7a"></path><path d="M300 63L235 108L283 134Z" fill="#205a7a" stroke="#205a7a"></path><path d="M246 176L172 194L232 227Z" fill="#0c2435" stroke="#0c2435"></path><path d="M438 0L371 0L428 47Z" fill="#246688" stroke="#246688"></path><path d="M300 63L252 51L235 108Z" fill="#15384f" stroke="#15384f"></path><path d="M537 420L613 369L531 350Z" fill="#246688" stroke="#246688"></path><path d="M584 0L521 0L537 50Z" fill="#112e42" stroke="#112e42"></path><path d="M615 131L655 106L580 71Z" fill="#1d4e6b" stroke="#1d4e6b"></path><path d="M580 71L584 0L537 50Z" fill="#297ea6" stroke="#297ea6"></path><path d="M702 163L655 106L615 131Z" fill="#00101c" stroke="#00101c"></path><path d="M702 163L615 131L644 199Z" fill="#19435d" stroke="#19435d"></path><path d="M174 251L199 301L232 227Z" fill="#297ea6" stroke="#297ea6"></path><path d="M232 227L199 301L238 309Z" fill="#081a28" stroke="#081a28"></path><path d="M249 431L292 427L295 374Z" fill="#15384f" stroke="#15384f"></path><path d="M295 374L292 427L374 439Z" fill="#246688" stroke="#246688"></path><path d="M228 377L295 374L238 309Z" fill="#205a7a" stroke="#205a7a"></path><path d="M305 0L252 51L300 63Z" fill="#205a7a" stroke="#205a7a"></path><path d="M371 0L305 0L370 46Z" fill="#112e42" stroke="#112e42"></path><path d="M199 42L191 137L235 108Z" fill="#1d4e6b" stroke="#1d4e6b"></path><path d="M235 108L191 137L246 176Z" fill="#112e42" stroke="#112e42"></path><path d="M199 301L228 377L238 309Z" fill="#081a28" stroke="#081a28"></path><path d="M523 470L494 414L488 480Z" fill="#081a28" stroke="#081a28"></path><path d="M537 420L582 435L613 369Z" fill="#246688" stroke="#246688"></path><path d="M724 311L701 247L645 308Z" fill="#00101c" stroke="#00101c"></path><path d="M172 194L174 251L232 227Z" fill="#19435d" stroke="#19435d"></path><path d="M199 301L167 361L228 377Z" fill="#15384f" stroke="#15384f"></path><path d="M488 480L494 414L434 423Z" fill="#0c2435" stroke="#0c2435"></path><path d="M488 480L434 423L405 485Z" fill="#0c2435" stroke="#0c2435"></path><path d="M405 485L434 423L374 439Z" fill="#19435d" stroke="#19435d"></path><path d="M191 137L172 194L246 176Z" fill="#297ea6" stroke="#297ea6"></path><path d="M292 427L351 473L374 439Z" fill="#246688" stroke="#246688"></path><path d="M351 473L405 485L374 439Z" fill="#277297" stroke="#277297"></path><path d="M677 45L584 0L580 71Z" fill="#19435d" stroke="#19435d"></path><path d="M645 308L701 247L658 241Z" fill="#297ea6" stroke="#297ea6"></path><path d="M658 241L701 247L644 199Z" fill="#15384f" stroke="#15384f"></path><path d="M669 357L645 308L613 369Z" fill="#15384f" stroke="#15384f"></path><path d="M663 420L669 357L613 369Z" fill="#15384f" stroke="#15384f"></path><path d="M701 247L702 163L644 199Z" fill="#1d4e6b" stroke="#1d4e6b"></path><path d="M655 106L677 45L580 71Z" fill="#19435d" stroke="#19435d"></path><path d="M230 472L249 431L185 439Z" fill="#081a28" stroke="#081a28"></path><path d="M228 377L249 431L295 374Z" fill="#00101c" stroke="#00101c"></path><path d="M292 427L319 499L351 473Z" fill="#112e42" stroke="#112e42"></path><path d="M235 0L199 42L252 51Z" fill="#112e42" stroke="#112e42"></path><path d="M252 51L199 42L235 108Z" fill="#112e42" stroke="#112e42"></path><path d="M191 137L134 163L172 194Z" fill="#19435d" stroke="#19435d"></path><path d="M305 0L235 0L252 51Z" fill="#00101c" stroke="#00101c"></path><path d="M721 62L677 45L655 106Z" fill="#15384f" stroke="#15384f"></path><path d="M230 472L319 499L292 427Z" fill="#00101c" stroke="#00101c"></path><path d="M351 473L349 540L405 485Z" fill="#19435d" stroke="#19435d"></path><path d="M536 540L523 470L488 480Z" fill="#246688" stroke="#246688"></path><path d="M582 435L663 420L613 369Z" fill="#297ea6" stroke="#297ea6"></path><path d="M669 357L724 311L645 308Z" fill="#00101c" stroke="#00101c"></path><path d="M645 492L663 420L582 435Z" fill="#19435d" stroke="#19435d"></path><path d="M111 283L167 361L199 301Z" fill="#19435d" stroke="#19435d"></path><path d="M249 431L230 472L292 427Z" fill="#297ea6" stroke="#297ea6"></path><path d="M111 283L199 301L174 251Z" fill="#081a28" stroke="#081a28"></path><path d="M719 370L724 311L669 357Z" fill="#1d4e6b" stroke="#1d4e6b"></path><path d="M763 165L734 135L702 163Z" fill="#00101c" stroke="#00101c"></path><path d="M139 100L134 163L191 137Z" fill="#297ea6" stroke="#297ea6"></path><path d="M172 194L113 245L174 251Z" fill="#00101c" stroke="#00101c"></path><path d="M763 165L702 163L701 247Z" fill="#00101c" stroke="#00101c"></path><path d="M702 163L734 135L655 106Z" fill="#081a28" stroke="#081a28"></path><path d="M536 540L594 493L523 470Z" fill="#00101c" stroke="#00101c"></path><path d="M523 470L594 493L582 435Z" fill="#00101c" stroke="#00101c"></path><path d="M434 540L488 480L405 485Z" fill="#19435d" stroke="#19435d"></path><path d="M349 540L434 540L405 485Z" fill="#277297" stroke="#277297"></path><path d="M114 59L139 100L199 42Z" fill="#1d4e6b" stroke="#1d4e6b"></path><path d="M199 42L139 100L191 137Z" fill="#00101c" stroke="#00101c"></path><path d="M739 423L719 370L663 420Z" fill="#00101c" stroke="#00101c"></path><path d="M663 420L719 370L669 357Z" fill="#205a7a" stroke="#205a7a"></path><path d="M434 540L474 540L488 480Z" fill="#297ea6" stroke="#297ea6"></path><path d="M59 173L113 245L134 163Z" fill="#19435d" stroke="#19435d"></path><path d="M134 163L113 245L172 194Z" fill="#277297" stroke="#277297"></path><path d="M185 439L249 431L228 377Z" fill="#297ea6" stroke="#297ea6"></path><path d="M319 499L349 540L351 473Z" fill="#246688" stroke="#246688"></path><path d="M734 135L721 62L655 106Z" fill="#246688" stroke="#246688"></path><path d="M677 45L677 0L584 0Z" fill="#205a7a" stroke="#205a7a"></path><path d="M729 0L677 0L677 45Z" fill="#081a28" stroke="#081a28"></path><path d="M793 312L763 253L724 311Z" fill="#081a28" stroke="#081a28"></path><path d="M724 311L763 253L701 247Z" fill="#00101c" stroke="#00101c"></path><path d="M734 135L766 131L721 62Z" fill="#19435d" stroke="#19435d"></path><path d="M317 540L349 540L319 499Z" fill="#1d4e6b" stroke="#1d4e6b"></path><path d="M113 245L111 283L174 251Z" fill="#081a28" stroke="#081a28"></path><path d="M167 361L185 439L228 377Z" fill="#0c2435" stroke="#0c2435"></path><path d="M121 410L185 439L167 361Z" fill="#0c2435" stroke="#0c2435"></path><path d="M763 253L763 165L701 247Z" fill="#112e42" stroke="#112e42"></path><path d="M474 540L536 540L488 480Z" fill="#277297" stroke="#277297"></path><path d="M235 0L184 0L199 42Z" fill="#277297" stroke="#277297"></path><path d="M226 540L317 540L319 499Z" fill="#15384f" stroke="#15384f"></path><path d="M226 540L319 499L230 472Z" fill="#0c2435" stroke="#0c2435"></path><path d="M594 493L645 492L582 435Z" fill="#00101c" stroke="#00101c"></path><path d="M617 540L645 492L594 493Z" fill="#15384f" stroke="#15384f"></path><path d="M858 126L766 131L763 165Z" fill="#15384f" stroke="#15384f"></path><path d="M763 165L766 131L734 135Z" fill="#0c2435" stroke="#0c2435"></path><path d="M111 283L109 343L167 361Z" fill="#297ea6" stroke="#297ea6"></path><path d="M184 0L114 59L199 42Z" fill="#297ea6" stroke="#297ea6"></path><path d="M66 101L59 173L134 163Z" fill="#297ea6" stroke="#297ea6"></path><path d="M113 245L51 259L111 283Z" fill="#1d4e6b" stroke="#1d4e6b"></path><path d="M111 283L65 347L109 343Z" fill="#297ea6" stroke="#297ea6"></path><path d="M723 469L739 423L663 420Z" fill="#277297" stroke="#277297"></path><path d="M798 365L793 312L724 311Z" fill="#00101c" stroke="#00101c"></path><path d="M109 343L121 410L167 361Z" fill="#15384f" stroke="#15384f"></path><path d="M185 439L161 468L230 472Z" fill="#112e42" stroke="#112e42"></path><path d="M536 540L617 540L594 493Z" fill="#00101c" stroke="#00101c"></path><path d="M645 492L723 469L663 420Z" fill="#15384f" stroke="#15384f"></path><path d="M762 0L729 0L721 62Z" fill="#15384f" stroke="#15384f"></path><path d="M721 62L729 0L677 45Z" fill="#205a7a" stroke="#205a7a"></path><path d="M121 410L161 468L185 439Z" fill="#246688" stroke="#246688"></path><path d="M798 365L724 311L719 370Z" fill="#081a28" stroke="#081a28"></path><path d="M763 253L845 234L763 165Z" fill="#15384f" stroke="#15384f"></path><path d="M766 131L775 62L721 62Z" fill="#277297" stroke="#277297"></path><path d="M858 126L775 62L766 131Z" fill="#297ea6" stroke="#297ea6"></path><path d="M66 101L134 163L139 100Z" fill="#297ea6" stroke="#297ea6"></path><path d="M109 343L65 347L121 410Z" fill="#15384f" stroke="#15384f"></path><path d="M707 540L723 469L645 492Z" fill="#081a28" stroke="#081a28"></path><path d="M739 423L769 413L719 370Z" fill="#1d4e6b" stroke="#1d4e6b"></path><path d="M193 540L226 540L230 472Z" fill="#19435d" stroke="#19435d"></path><path d="M784 479L769 413L739 423Z" fill="#15384f" stroke="#15384f"></path><path d="M184 0L120 0L114 59Z" fill="#00101c" stroke="#00101c"></path><path d="M114 59L66 101L139 100Z" fill="#0c2435" stroke="#0c2435"></path><path d="M59 173L51 259L113 245Z" fill="#246688" stroke="#246688"></path><path d="M57 70L66 101L114 59Z" fill="#19435d" stroke="#19435d"></path><path d="M769 413L798 365L719 370Z" fill="#297ea6" stroke="#297ea6"></path><path d="M793 312L845 234L763 253Z" fill="#112e42" stroke="#112e42"></path><path d="M42 291L65 347L111 283Z" fill="#081a28" stroke="#081a28"></path><path d="M128 494L193 540L161 468Z" fill="#081a28" stroke="#081a28"></path><path d="M617 540L663 540L645 492Z" fill="#15384f" stroke="#15384f"></path><path d="M775 62L762 0L721 62Z" fill="#297ea6" stroke="#297ea6"></path><path d="M0 250L42 291L51 259Z" fill="#19435d" stroke="#19435d"></path><path d="M51 259L42 291L111 283Z" fill="#1d4e6b" stroke="#1d4e6b"></path><path d="M0 250L51 259L59 173Z" fill="#19435d" stroke="#19435d"></path><path d="M128 494L161 468L121 410Z" fill="#0c2435" stroke="#0c2435"></path><path d="M161 468L193 540L230 472Z" fill="#205a7a" stroke="#205a7a"></path><path d="M55 0L57 70L114 59Z" fill="#246688" stroke="#246688"></path><path d="M0 133L0 166L59 173Z" fill="#297ea6" stroke="#297ea6"></path><path d="M857 317L845 234L793 312Z" fill="#246688" stroke="#246688"></path><path d="M775 62L838 0L762 0Z" fill="#246688" stroke="#246688"></path><path d="M67 425L128 494L121 410Z" fill="#00101c" stroke="#00101c"></path><path d="M845 234L851 195L763 165Z" fill="#297ea6" stroke="#297ea6"></path><path d="M723 469L784 479L739 423Z" fill="#277297" stroke="#277297"></path><path d="M858 357L857 317L798 365Z" fill="#19435d" stroke="#19435d"></path><path d="M663 540L707 540L645 492Z" fill="#205a7a" stroke="#205a7a"></path><path d="M65 347L67 425L121 410Z" fill="#205a7a" stroke="#205a7a"></path><path d="M0 349L67 425L65 347Z" fill="#246688" stroke="#246688"></path><path d="M798 365L857 317L793 312Z" fill="#15384f" stroke="#15384f"></path><path d="M911 228L901 170L851 195Z" fill="#297ea6" stroke="#297ea6"></path><path d="M858 357L798 365L841 407Z" fill="#1d4e6b" stroke="#1d4e6b"></path><path d="M772 540L784 479L723 469Z" fill="#246688" stroke="#246688"></path><path d="M901 170L858 126L851 195Z" fill="#15384f" stroke="#15384f"></path><path d="M851 195L858 126L763 165Z" fill="#277297" stroke="#277297"></path><path d="M0 166L0 250L59 173Z" fill="#19435d" stroke="#19435d"></path><path d="M42 291L0 349L65 347Z" fill="#0c2435" stroke="#0c2435"></path><path d="M0 133L59 173L66 101Z" fill="#246688" stroke="#246688"></path><path d="M0 250L0 287L42 291Z" fill="#112e42" stroke="#112e42"></path><path d="M120 0L55 0L114 59Z" fill="#19435d" stroke="#19435d"></path><path d="M0 71L0 133L66 101Z" fill="#0c2435" stroke="#0c2435"></path><path d="M841 407L798 365L769 413Z" fill="#19435d" stroke="#19435d"></path><path d="M911 228L851 195L845 234Z" fill="#1d4e6b" stroke="#1d4e6b"></path><path d="M0 71L66 101L57 70Z" fill="#112e42" stroke="#112e42"></path><path d="M829 460L841 407L769 413Z" fill="#297ea6" stroke="#297ea6"></path><path d="M858 126L845 43L775 62Z" fill="#246688" stroke="#246688"></path><path d="M45 461L128 494L67 425Z" fill="#15384f" stroke="#15384f"></path><path d="M61 540L118 540L128 494Z" fill="#19435d" stroke="#19435d"></path><path d="M128 494L118 540L193 540Z" fill="#19435d" stroke="#19435d"></path><path d="M0 287L0 349L42 291Z" fill="#297ea6" stroke="#297ea6"></path><path d="M0 431L45 461L67 425Z" fill="#297ea6" stroke="#297ea6"></path><path d="M845 43L838 0L775 62Z" fill="#0c2435" stroke="#0c2435"></path><path d="M849 540L829 460L784 479Z" fill="#1d4e6b" stroke="#1d4e6b"></path><path d="M784 479L829 460L769 413Z" fill="#1d4e6b" stroke="#1d4e6b"></path><path d="M881 406L897 345L858 357Z" fill="#1d4e6b" stroke="#1d4e6b"></path><path d="M55 0L0 71L57 70Z" fill="#277297" stroke="#277297"></path><path d="M707 540L772 540L723 469Z" fill="#246688" stroke="#246688"></path><path d="M911 228L845 234L907 307Z" fill="#15384f" stroke="#15384f"></path><path d="M858 126L905 58L845 43Z" fill="#1d4e6b" stroke="#1d4e6b"></path><path d="M845 43L882 0L838 0Z" fill="#1d4e6b" stroke="#1d4e6b"></path><path d="M897 345L857 317L858 357Z" fill="#15384f" stroke="#15384f"></path><path d="M907 307L845 234L857 317Z" fill="#00101c" stroke="#00101c"></path><path d="M881 406L858 357L841 407Z" fill="#277297" stroke="#277297"></path><path d="M897 345L907 307L857 317Z" fill="#205a7a" stroke="#205a7a"></path><path d="M899 479L881 406L829 460Z" fill="#081a28" stroke="#081a28"></path><path d="M829 460L881 406L841 407Z" fill="#0c2435" stroke="#0c2435"></path><path d="M960 296L911 228L907 307Z" fill="#112e42" stroke="#112e42"></path><path d="M0 349L0 431L67 425Z" fill="#246688" stroke="#246688"></path><path d="M45 461L61 540L128 494Z" fill="#0c2435" stroke="#0c2435"></path><path d="M55 0L0 0L0 71Z" fill="#297ea6" stroke="#297ea6"></path><path d="M960 162L918 138L901 170Z" fill="#112e42" stroke="#112e42"></path><path d="M901 170L918 138L858 126Z" fill="#081a28" stroke="#081a28"></path><path d="M960 162L901 170L911 228Z" fill="#00101c" stroke="#00101c"></path><path d="M0 482L61 540L45 461Z" fill="#081a28" stroke="#081a28"></path><path d="M918 138L905 58L858 126Z" fill="#277297" stroke="#277297"></path><path d="M905 58L882 0L845 43Z" fill="#1d4e6b" stroke="#1d4e6b"></path><path d="M0 431L0 482L45 461Z" fill="#112e42" stroke="#112e42"></path><path d="M772 540L849 540L784 479Z" fill="#00101c" stroke="#00101c"></path><path d="M960 296L907 307L960 355Z" fill="#277297" stroke="#277297"></path><path d="M907 307L897 345L960 355Z" fill="#0c2435" stroke="#0c2435"></path><path d="M960 296L960 232L911 228Z" fill="#081a28" stroke="#081a28"></path><path d="M918 138L960 128L905 58Z" fill="#00101c" stroke="#00101c"></path><path d="M960 232L960 162L911 228Z" fill="#15384f" stroke="#15384f"></path><path d="M905 58L960 0L882 0Z" fill="#246688" stroke="#246688"></path><path d="M960 355L897 345L960 408Z" fill="#205a7a" stroke="#205a7a"></path><path d="M849 540L899 479L829 460Z" fill="#15384f" stroke="#15384f"></path><path d="M960 162L960 128L918 138Z" fill="#00101c" stroke="#00101c"></path><path d="M0 482L0 540L61 540Z" fill="#15384f" stroke="#15384f"></path><path d="M960 408L897 345L881 406Z" fill="#1d4e6b" stroke="#1d4e6b"></path><path d="M960 128L960 45L905 58Z" fill="#19435d" stroke="#19435d"></path><path d="M899 479L960 408L881 406Z" fill="#15384f" stroke="#15384f"></path><path d="M960 480L960 408L899 479Z" fill="#297ea6" stroke="#297ea6"></path><path d="M849 540L904 540L899 479Z" fill="#00101c" stroke="#00101c"></path><path d="M960 45L960 0L905 58Z" fill="#277297" stroke="#277297"></path><path d="M904 540L960 480L899 479Z" fill="#112e42" stroke="#112e42"></path><path d="M904 540L960 540L960 480Z" fill="#246688" stroke="#246688"></path></g></svg>