<svg id="visual" viewBox="0 0 900 600" width="900" height="600" xmlns="http://www.w3.org/2000/svg" xmlns:xlink="http://www.w3.org/1999/xlink" version="1.1"><path d="M0 205L47 205L47 37L95 37L95 193L142 193L142 49L189 49L189 67L237 67L237 97L284 97L284 151L332 151L332 85L379 85L379 73L426 73L426 181L474 181L474 73L521 73L521 85L568 85L568 67L616 67L616 121L663 121L663 193L711 193L711 79L758 79L758 109L805 109L805 115L853 115L853 211L900 211L900 67L900 0L900 0L853 0L853 0L805 0L805 0L758 0L758 0L711 0L711 0L663 0L663 0L616 0L616 0L568 0L568 0L521 0L521 0L474 0L474 0L426 0L426 0L379 0L379 0L332 0L332 0L284 0L284 0L237 0L237 0L189 0L189 0L142 0L142 0L95 0L95 0L47 0L47 0L0 0Z" fill="#84c941"></path><path d="M0 223L47 223L47 61L95 61L95 235L142 235L142 91L189 91L189 85L237 85L237 133L284 133L284 205L332 205L332 127L379 127L379 115L426 115L426 223L474 223L474 127L521 127L521 91L568 91L568 85L616 85L616 175L663 175L663 217L711 217L711 139L758 139L758 157L805 157L805 175L853 175L853 241L900 241L900 85L900 65L900 209L853 209L853 113L805 113L805 107L758 107L758 77L711 77L711 191L663 191L663 119L616 119L616 65L568 65L568 83L521 83L521 71L474 71L474 179L426 179L426 71L379 71L379 83L332 83L332 149L284 149L284 95L237 95L237 65L189 65L189 47L142 47L142 191L95 191L95 35L47 35L47 203L0 203Z" fill="#37c473"></path><path d="M0 307L47 307L47 127L95 127L95 289L142 289L142 193L189 193L189 115L237 115L237 181L284 181L284 277L332 277L332 271L379 271L379 205L426 205L426 241L474 241L474 157L521 157L521 271L568 271L568 103L616 103L616 295L663 295L663 367L711 367L711 235L758 235L758 217L805 217L805 193L853 193L853 283L900 283L900 223L900 83L900 239L853 239L853 173L805 173L805 155L758 155L758 137L711 137L711 215L663 215L663 173L616 173L616 83L568 83L568 89L521 89L521 125L474 125L474 221L426 221L426 113L379 113L379 125L332 125L332 203L284 203L284 131L237 131L237 83L189 83L189 89L142 89L142 233L95 233L95 59L47 59L47 221L0 221Z" fill="#00bb9a"></path><path d="M0 373L47 373L47 199L95 199L95 331L142 331L142 217L189 217L189 139L237 139L237 199L284 199L284 325L332 325L332 277L379 277L379 229L426 229L426 295L474 295L474 181L521 181L521 277L568 277L568 145L616 145L616 355L663 355L663 397L711 397L711 295L758 295L758 253L805 253L805 253L853 253L853 319L900 319L900 295L900 221L900 281L853 281L853 191L805 191L805 215L758 215L758 233L711 233L711 365L663 365L663 293L616 293L616 101L568 101L568 269L521 269L521 155L474 155L474 239L426 239L426 203L379 203L379 269L332 269L332 275L284 275L284 179L237 179L237 113L189 113L189 191L142 191L142 287L95 287L95 125L47 125L47 305L0 305Z" fill="#00aeb4"></path><path d="M0 385L47 385L47 235L95 235L95 367L142 367L142 265L189 265L189 175L237 175L237 223L284 223L284 409L332 409L332 361L379 361L379 253L426 253L426 355L474 355L474 229L521 229L521 319L568 319L568 223L616 223L616 361L663 361L663 463L711 463L711 361L758 361L758 271L805 271L805 295L853 295L853 409L900 409L900 367L900 293L900 317L853 317L853 251L805 251L805 251L758 251L758 293L711 293L711 395L663 395L663 353L616 353L616 143L568 143L568 275L521 275L521 179L474 179L474 293L426 293L426 227L379 227L379 275L332 275L332 323L284 323L284 197L237 197L237 137L189 137L189 215L142 215L142 329L95 329L95 197L47 197L47 371L0 371Z" fill="#009eba"></path><path d="M0 415L47 415L47 307L95 307L95 385L142 385L142 301L189 301L189 247L237 247L237 253L284 253L284 487L332 487L332 373L379 373L379 325L426 325L426 379L474 379L474 271L521 271L521 361L568 361L568 253L616 253L616 367L663 367L663 493L711 493L711 421L758 421L758 343L805 343L805 349L853 349L853 481L900 481L900 403L900 365L900 407L853 407L853 293L805 293L805 269L758 269L758 359L711 359L711 461L663 461L663 359L616 359L616 221L568 221L568 317L521 317L521 227L474 227L474 353L426 353L426 251L379 251L379 359L332 359L332 407L284 407L284 221L237 221L237 173L189 173L189 263L142 263L142 365L95 365L95 233L47 233L47 383L0 383Z" fill="#008ebe"></path><path d="M0 463L47 463L47 499L95 499L95 487L142 487L142 469L189 469L189 475L237 475L237 451L284 451L284 529L332 529L332 481L379 481L379 469L426 469L426 547L474 547L474 481L521 481L521 511L568 511L568 535L616 535L616 457L663 457L663 529L711 529L711 505L758 505L758 505L805 505L805 481L853 481L853 529L900 529L900 547L900 401L900 479L853 479L853 347L805 347L805 341L758 341L758 419L711 419L711 491L663 491L663 365L616 365L616 251L568 251L568 359L521 359L521 269L474 269L474 377L426 377L426 323L379 323L379 371L332 371L332 485L284 485L284 251L237 251L237 245L189 245L189 299L142 299L142 383L95 383L95 305L47 305L47 413L0 413Z" fill="#007bbf"></path><path d="M0 505L47 505L47 547L95 547L95 535L142 535L142 481L189 481L189 511L237 511L237 493L284 493L284 541L332 541L332 505L379 505L379 529L426 529L426 583L474 583L474 499L521 499L521 559L568 559L568 565L616 565L616 511L663 511L663 589L711 589L711 523L758 523L758 535L805 535L805 523L853 523L853 553L900 553L900 571L900 545L900 527L853 527L853 479L805 479L805 503L758 503L758 503L711 503L711 527L663 527L663 455L616 455L616 533L568 533L568 509L521 509L521 479L474 479L474 545L426 545L426 467L379 467L379 479L332 479L332 527L284 527L284 449L237 449L237 473L189 473L189 467L142 467L142 485L95 485L95 497L47 497L47 461L0 461Z" fill="#0067bc"></path><path d="M0 601L47 601L47 601L95 601L95 601L142 601L142 601L189 601L189 601L237 601L237 601L284 601L284 601L332 601L332 601L379 601L379 601L426 601L426 601L474 601L474 601L521 601L521 601L568 601L568 601L616 601L616 601L663 601L663 601L711 601L711 601L758 601L758 601L805 601L805 601L853 601L853 601L900 601L900 601L900 569L900 551L853 551L853 521L805 521L805 533L758 533L758 521L711 521L711 587L663 587L663 509L616 509L616 563L568 563L568 557L521 557L521 497L474 497L474 581L426 581L426 527L379 527L379 503L332 503L332 539L284 539L284 491L237 491L237 509L189 509L189 479L142 479L142 533L95 533L95 545L47 545L47 503L0 503Z" fill="#2350b0"></path></svg>